<?xml version="1.0" encoding="UTF-8" standalone="no"?>
<svg
   width="20"
   height="20"
   viewBox="0 0 24 24"
   fill="none"
   stroke="#aaaaaa"
   stroke-width="1.5"
   stroke-linecap="round"
   stroke-linejoin="round"
   class="feather feather-activity"
   version="1.1"
   id="svg4"
   sodipodi:docname="filter_general.svg"
   inkscape:export-filename="../filter_general.png"
   inkscape:export-xdpi="124"
   inkscape:export-ydpi="124"
   inkscape:version="1.2.2 (b0a8486541, 2022-12-01)"
   xmlns:inkscape="http://www.inkscape.org/namespaces/inkscape"
   xmlns:sodipodi="http://sodipodi.sourceforge.net/DTD/sodipodi-0.dtd"
   xmlns="http://www.w3.org/2000/svg"
   xmlns:svg="http://www.w3.org/2000/svg"
   xmlns:rdf="http://www.w3.org/1999/02/22-rdf-syntax-ns#"
   xmlns:cc="http://creativecommons.org/ns#"
   xmlns:dc="http://purl.org/dc/elements/1.1/">
  <metadata
     id="metadata10">
    <rdf:RDF>
      <cc:Work
         rdf:about="">
        <dc:format>image/svg+xml</dc:format>
        <dc:type
           rdf:resource="http://purl.org/dc/dcmitype/StillImage" />
      </cc:Work>
    </rdf:RDF>
  </metadata>
  <defs
     id="defs8" />
  <sodipodi:namedview
     pagecolor="#ffffff"
     bordercolor="#666666"
     borderopacity="1"
     objecttolerance="10"
     gridtolerance="10"
     guidetolerance="10"
     inkscape:pageopacity="0"
     inkscape:pageshadow="2"
     inkscape:window-width="1920"
     inkscape:window-height="1008"
     id="namedview6"
     showgrid="false"
     inkscape:zoom="37.538745"
     inkscape:cx="11.588027"
     inkscape:cy="10.908729"
     inkscape:window-x="0"
     inkscape:window-y="0"
     inkscape:window-maximized="1"
     inkscape:current-layer="svg4"
     inkscape:showpageshadow="2"
     inkscape:pagecheckerboard="0"
     inkscape:deskcolor="#d1d1d1" />
  <polyline
     points="22 12 18 12 15 21 9 3 6 12 2 12"
     id="polyline2"
     transform="matrix(0.43956663,0,0,1.0277379,13.30286,-0.58208787)" />
  <polyline
     points="22 12 18 12 15 21 9 3 6 12 2 12"
     id="polyline2-3"
     transform="matrix(0.49313437,0,0,1.024616,1.3831377,-0.58513553)" />
  <path
     style="fill:#aaaaaa;stroke-width:0.89348;stroke-dasharray:none"
     d="m 3.0467769,9.3127711 c 0,1.6432739 -0.072569,1.6432739 -0.072569,1.6432739"
     id="path1910" />
  <path
     style="fill:#aaaaaa;stroke-width:0.89348;stroke-dasharray:none"
     d="m 3.6304141,11.919072 c 0,1.643274 -0.072569,1.643274 -0.072569,1.643274"
     id="path1910-5" />
  <path
     style="fill:#aaaaaa;stroke-width:0.89348;stroke-dasharray:none"
     d="m 4.7329526,10.036913 c 0,1.643257 -0.072569,1.643257 -0.072569,1.643257"
     id="path1910-5-0" />
  <path
     style="fill:#aaaaaa;stroke-width:0.89348;stroke-dasharray:none"
     d="m 7.288397,12.911597 c 0,1.643274 -0.072569,1.643274 -0.072569,1.643274"
     id="path1910-5-3" />
  <path
     style="fill:#aaaaaa;stroke-width:0.917497;stroke-dasharray:none"
     d="m 5.4254484,7.1476069 c 0,2.5899494 -0.048552,2.5899494 -0.048552,2.5899494"
     id="path1910-5-3-9" />
  <path
     style="fill:#aaaaaa;stroke-width:0.917497;stroke-dasharray:none"
     d="m 4.2843239,7.8330263 c 0,2.5899497 -0.048552,2.5899497 -0.048552,2.5899497"
     id="path1910-5-3-9-3" />
  <path
     style="fill:#aaaaaa;stroke-width:0.917497;stroke-dasharray:none"
     d="m 8.0990401,13.029266 c 0,2.589949 -0.048552,2.589949 -0.048552,2.589949"
     id="path1910-5-3-9-3-6" />
  <path
     style="fill:#aaaaaa;stroke-width:0.917497;stroke-dasharray:none"
     d="m 10.617154,8.5822673 c 0,2.5899487 -0.04855,2.5899487 -0.04855,2.5899487"
     id="path1910-5-3-9-3-6-0" />
  <path
     style="fill:#aaaaaa;stroke-width:0.917497;stroke-dasharray:none"
     d="m 10.305335,12.409905 c 0,2.589949 -0.04855,2.589949 -0.04855,2.589949"
     id="path1910-5-3-9-3-6-0-6" />
  <path
     style="fill:#aaaaaa;stroke-width:0.929652;stroke-dasharray:none"
     d="m 9.591675,16.289106 c 0,3.546999 -0.0364,3.546999 -0.0364,3.546999"
     id="path1910-5-3-5" />
  <path
     style="fill:#aaaaaa;stroke-width:0.89348;stroke-dasharray:none"
     d="m 11.100826,12.101835 c 0,1.643274 -0.07257,1.643274 -0.07257,1.643274"
     id="path1910-5-3-5-6" />
  <path
     style="fill:#aaaaaa;stroke-width:0.89348;stroke-dasharray:none"
     d="m 9.44813,13.707707 c 0,1.643274 -0.07257,1.643274 -0.07257,1.643274"
     id="path1910-5-3-5-6-26" />
  <path
     style="fill:#aaaaaa;stroke-width:0.89348;stroke-dasharray:none"
     d="m 9.908745,10.124166 c 0,1.643274 -0.07257,1.643274 -0.07257,1.643274"
     id="path1910-5-3-5-6-2" />
  <path
     style="fill:#aaaaaa;stroke-width:0.89348;stroke-dasharray:none"
     d="m 7.0287805,5.4430381 c 0,1.643274 -0.07257,1.643274 -0.07257,1.643274"
     id="path1910-5-3-5-6-2-9" />
  <path
     style="fill:#aaaaaa;stroke-width:0.917403;stroke-dasharray:none"
     d="m 5.0678241,3.8279254 c 0,2.584422 0.048647,2.584422 0.048647,2.584422"
     id="path1910-5-3-5-6-2-9-1" />
  <path
     style="fill:#aaaaaa;stroke-width:0.936585;stroke-dasharray:none"
     d="m 7.5709538,8.3826417 c 0,3.6264813 0.036133,3.6264813 0.036133,3.6264813"
     id="path1910-5-3-5-6-2-9-1-2" />
  <path
     style="fill:#aaaaaa;stroke-width:0.986398;stroke-dasharray:none"
     d="m 6.5240127,10.11953 c 0,7.418683 0.01959,7.418683 0.01959,7.418683"
     id="path1910-5-3-5-6-2-9-1-2-2" />
  <path
     style="fill:#aaaaaa;stroke-width:0.986398;stroke-dasharray:none"
     d="m 11.904691,5.8737739 c 0,7.4186831 0.01959,7.4186831 0.01959,7.4186831"
     id="path1910-5-3-5-6-2-9-1-2-2-0" />
  <path
     style="fill:#aaaaaa;stroke-width:0.936585;stroke-dasharray:none"
     d="m 6.4917088,7.7222719 c 0,3.6264811 0.036133,3.6264811 0.036133,3.6264811"
     id="path1910-5-3-5-6-2-9-1-2-79" />
  <path
     style="fill:#aaaaaa;stroke-width:0.943816;stroke-dasharray:none"
     d="m 8.0132538,16.831702 c 0,4.235567 0.031417,4.235567 0.031417,4.235567"
     id="path1910-5-3-5-6-2-9-1-2-7" />
  <path
     style="fill:#aaaaaa;stroke-width:0.943816;stroke-dasharray:none"
     d="m 5.1911342,9.9214808 c 0,4.2355672 0.031417,4.2355672 0.031417,4.2355672"
     id="path1910-5-3-5-6-2-9-1-2-7-1" />
  <path
     style="fill:#aaaaaa;stroke-width:0.943816;stroke-dasharray:none"
     d="m 6.1060063,2.3516273 c 0,4.2355672 0.031417,4.2355672 0.031417,4.2355672"
     id="path1910-5-3-5-6-2-9-1-2-7-1-8" />
</svg>
