<?xml version="1.0" encoding="UTF-8" standalone="no"?>
<svg
   width="20"
   height="20"
   viewBox="0 0 24 24"
   fill="none"
   stroke="#aaaaaa"
   stroke-width="1.5"
   stroke-linecap="round"
   stroke-linejoin="round"
   class="feather feather-table"
   version="1.1"
   id="svg4"
   sodipodi:docname="import_ascii.svg"
   inkscape:version="1.1.2 (0a00cf5339, 2022-02-04)"
   inkscape:export-filename="/home/marcin/PycharmProjects/Eleana/pixmaps/table.png"
   inkscape:export-xdpi="124"
   inkscape:export-ydpi="124"
   xmlns:inkscape="http://www.inkscape.org/namespaces/inkscape"
   xmlns:sodipodi="http://sodipodi.sourceforge.net/DTD/sodipodi-0.dtd"
   xmlns="http://www.w3.org/2000/svg"
   xmlns:svg="http://www.w3.org/2000/svg"
   xmlns:rdf="http://www.w3.org/1999/02/22-rdf-syntax-ns#"
   xmlns:cc="http://creativecommons.org/ns#"
   xmlns:dc="http://purl.org/dc/elements/1.1/">
  <metadata
     id="metadata10">
    <rdf:RDF>
      <cc:Work
         rdf:about="">
        <dc:format>image/svg+xml</dc:format>
        <dc:type
           rdf:resource="http://purl.org/dc/dcmitype/StillImage" />
      </cc:Work>
    </rdf:RDF>
  </metadata>
  <defs
     id="defs8" />
  <sodipodi:namedview
     pagecolor="#ffffff"
     bordercolor="#000000"
     borderopacity="0.25"
     objecttolerance="10"
     gridtolerance="10"
     guidetolerance="10"
     inkscape:pageopacity="0"
     inkscape:pageshadow="2"
     inkscape:window-width="1920"
     inkscape:window-height="999"
     id="namedview6"
     showgrid="false"
     inkscape:zoom="13.085949"
     inkscape:cx="-5.2346223"
     inkscape:cy="8.5205896"
     inkscape:window-x="0"
     inkscape:window-y="0"
     inkscape:window-maximized="1"
     inkscape:current-layer="svg4"
     inkscape:pagecheckerboard="0" />
  <polyline
     points="10 9 9 9 8 9"
     id="polyline10-6"
     style="stroke-width:1.87567"
     transform="matrix(0.78347623,0,0,0.73294198,0.68213061,0.24582987)" />
  <polyline
     points="10 9 9 9 8 9"
     id="polyline10-6-3"
     style="stroke-width:1.87567"
     transform="matrix(0.78347623,0,0,0.73294198,0.68213061,2.4449949)" />
  <polyline
     points="10 9 9 9 8 9"
     id="polyline10-6-3-6"
     style="stroke-width:1.87567"
     transform="matrix(0.78347623,0,0,0.73294198,0.68213061,4.6441597)" />
  <polyline
     points="10 9 9 9 8 9"
     id="polyline10-6-3-6-7"
     style="stroke-width:1.87567"
     transform="matrix(0.78347623,0,0,0.73294198,0.68213061,6.8433228)" />
  <polyline
     points="10 9 9 9 8 9"
     id="polyline10-6-3-6-5"
     style="stroke-width:1.87567"
     transform="matrix(0.78347623,0,0,0.73294198,5.4198226,4.6608749)" />
  <polyline
     points="10 9 9 9 8 9"
     id="polyline10-6-3-6-7-6"
     style="stroke-width:1.87567"
     transform="matrix(0.78347623,0,0,0.73294198,5.4198226,6.8600378)" />
  <polyline
     points="10 9 9 9 8 9"
     id="polyline10-6-35"
     style="stroke-width:1.87567"
     transform="matrix(0.78347623,0,0,0.73294198,0.67201861,9.1905908)" />
  <polyline
     points="10 9 9 9 8 9"
     id="polyline10-6-3-62"
     style="stroke-width:1.87567"
     transform="matrix(0.78347623,0,0,0.73294198,0.67201861,11.389756)" />
  <polyline
     points="10 9 9 9 8 9"
     id="polyline10-6-5-2"
     style="stroke-width:1.87567"
     transform="matrix(0.78347623,0,0,0.73294198,5.4097106,9.2073058)" />
  <polyline
     points="10 9 9 9 8 9"
     id="polyline10-6-3-3-7"
     style="stroke-width:1.87567"
     transform="matrix(0.78347623,0,0,0.73294198,5.4097106,11.406471)" />
  <polyline
     points="10 9 9 9 8 9"
     id="polyline10-6-3-6-6"
     style="stroke-width:1.87567"
     transform="matrix(0.78347623,0,0,0.73294198,9.8952636,4.9827985)" />
  <polyline
     points="10 9 9 9 8 9"
     id="polyline10-6-3-6-7-2"
     style="stroke-width:1.87567"
     transform="matrix(0.78347623,0,0,0.73294198,9.8952636,7.1819618)" />
  <polyline
     points="10 9 9 9 8 9"
     id="polyline10-6-35-9"
     style="stroke-width:1.87567"
     transform="matrix(0.78347623,0,0,0.73294198,9.8851516,9.5292298)" />
  <polyline
     points="10 9 9 9 8 9"
     id="polyline10-6-3-62-2"
     style="stroke-width:1.87567"
     transform="matrix(0.78347623,0,0,0.73294198,9.8851516,11.728395)" />
  <g
     id="g3261"
     transform="matrix(0.68266935,0,0,0.64552415,30.659529,3.895841)"
     style="stroke-width:2.25959">
    <polyline
       points="16 3 21 3 21 8"
       id="polyline3231"
       transform="translate(-39.882994,-1.8632128)"
       style="fill:none;stroke:#aaaaaa;stroke-width:2.25959;stroke-linecap:round;stroke-linejoin:round" />
    <line
       x1="-28.134789"
       y1="9.9469233"
       x2="-18.882994"
       y2="1.1367872"
       id="line3233"
       style="fill:none;stroke:#aaaaaa;stroke-width:2.25959;stroke-linecap:round;stroke-linejoin:round" />
  </g>
  <polyline
     points="21 16 21 21 16 21"
     id="polyline3235"
     transform="translate(-39.882994,-1.8632128)"
     style="fill:none;stroke:#aaaaaa;stroke-width:1.5;stroke-linecap:round;stroke-linejoin:round" />
  <line
     x1="-24.882994"
     y1="13.136787"
     x2="-18.882994"
     y2="19.136787"
     id="line3237"
     style="fill:none;stroke:#aaaaaa;stroke-width:1.5;stroke-linecap:round;stroke-linejoin:round" />
  <line
     x1="-35.882996"
     y1="2.1367872"
     x2="-30.882994"
     y2="7.1367874"
     id="line3239"
     style="fill:none;stroke:#aaaaaa;stroke-width:1.5;stroke-linecap:round;stroke-linejoin:round" />
</svg>
