<?xml version="1.0" encoding="UTF-8" standalone="no"?>
<svg
   width="20"
   height="20"
   viewBox="0 0 24 24"
   fill="none"
   stroke="#aaaaaa"
   stroke-width="1.5"
   stroke-linecap="round"
   stroke-linejoin="round"
   class="feather feather-bold"
   version="1.1"
   id="svg16644"
   sodipodi:docname="import_emx.svg"
   inkscape:version="1.1.2 (0a00cf5339, 2022-02-04)"
   inkscape:export-filename="/home/marcin/PycharmProjects/Eleana/pixmaps/import_emx.png"
   inkscape:export-xdpi="124"
   inkscape:export-ydpi="124"
   xmlns:inkscape="http://www.inkscape.org/namespaces/inkscape"
   xmlns:sodipodi="http://sodipodi.sourceforge.net/DTD/sodipodi-0.dtd"
   xmlns="http://www.w3.org/2000/svg"
   xmlns:svg="http://www.w3.org/2000/svg">
  <defs
     id="defs16648" />
  <sodipodi:namedview
     id="namedview16646"
     pagecolor="#ffffff"
     bordercolor="#666666"
     borderopacity="1.0"
     inkscape:pageshadow="2"
     inkscape:pageopacity="0.0"
     inkscape:pagecheckerboard="0"
     showgrid="false"
     inkscape:zoom="17.215349"
     inkscape:cx="7.2900063"
     inkscape:cy="13.273039"
     inkscape:window-width="1920"
     inkscape:window-height="999"
     inkscape:window-x="0"
     inkscape:window-y="0"
     inkscape:window-maximized="1"
     inkscape:current-layer="svg16644" />
  <g
     id="g17503"
     transform="matrix(0.77988897,0,0,1.0788881,1.1780728,-0.92740771)">
    <polyline
       points="22 12 18 12 15 21 9 3 6 12 2 12"
       id="polyline2"
       transform="matrix(0.42883514,0,0,0.86167378,1.7200673,1.7691092)"
       style="stroke-width:2.4676" />
    <polyline
       points="22 12 18 12 15 21 9 3 6 12 2 12"
       id="polyline2-5"
       transform="matrix(0.42883514,0,0,0.86167378,8.5814295,1.7691092)"
       style="stroke-width:2.4676" />
    <polyline
       points="22 12 18 12 15 21 9 3 6 12 2 12"
       id="polyline2-5-3"
       transform="matrix(0.42883514,0,0,0.86167378,16.182262,1.7691092)"
       style="stroke-width:2.4676" />
  </g>
</svg>
