<?xml version="1.0" encoding="UTF-8" standalone="no"?>
<svg
   width="20"
   height="20"
   viewBox="0 0 24 24"
   fill="none"
   stroke="#aaaaaa"
   stroke-width="1.5"
   stroke-linecap="round"
   stroke-linejoin="round"
   class="feather feather-battery"
   version="1.1"
   id="svg541"
   sodipodi:docname="project2.svg"
   xml:space="preserve"
   inkscape:version="1.2.2 (b0a8486541, 2022-12-01)"
   xmlns:inkscape="http://www.inkscape.org/namespaces/inkscape"
   xmlns:sodipodi="http://sodipodi.sourceforge.net/DTD/sodipodi-0.dtd"
   xmlns="http://www.w3.org/2000/svg"
   xmlns:svg="http://www.w3.org/2000/svg"><defs
     id="defs545"><style
       id="style132">.cls-1{fill:#5f6269;}.cls-2{fill:#01336b;}.cls-3{fill:#101a4b;}.cls-4{fill:#fff;}.cls-5{fill:#8d9093;}.cls-6{fill:#e6e7e8;}.cls-7{fill:#acafb2;}</style></defs><sodipodi:namedview
     id="namedview543"
     pagecolor="#ffffff"
     bordercolor="#000000"
     borderopacity="0.25"
     inkscape:showpageshadow="2"
     inkscape:pageopacity="0.0"
     inkscape:pagecheckerboard="0"
     inkscape:deskcolor="#d1d1d1"
     showgrid="false"
     inkscape:zoom="9.4127323"
     inkscape:cx="-17.370089"
     inkscape:cy="38.192948"
     inkscape:window-width="1920"
     inkscape:window-height="1008"
     inkscape:window-x="0"
     inkscape:window-y="0"
     inkscape:window-maximized="1"
     inkscape:current-layer="svg541" /><path
     style="color:#000000;fill:#000000;fill-opacity:1;stroke-width:0.852124;stroke-linecap:round;stroke-dasharray:none;-inkscape-stroke:none"
     d="M 12.571293,1.7941473 C 8.7048183,1.7789439 5.339089,2.9150542 2.4891154,5.3131694 L 2.380974,5.4043747 2.3496214,5.5411772 C 1.5311832,9.098582 2.102684,12.920613 4.088492,16.220361 c 1.9253561,3.19928 4.7297195,5.629799 8.331552,6.744345 l 0.128516,0.04015 0.128514,-0.04015 c 3.597519,-1.113208 6.59238,-3.534108 8.524331,-6.744345 1.996109,-3.316831 2.406425,-7.3797697 1.83291,-10.6065315 L 23.00766,5.4623393 22.888561,5.3634076 C 20.024852,2.978429 16.345103,1.8089828 12.57128,1.7941473 Z m -0.0038,0.8463315 c 3.541795,0.013964 6.962207,1.1057315 9.637082,3.2801869 0.499966,3.0148231 0.0926,6.8217583 -1.740442,9.8676453 -1.805711,3.000477 -4.586148,5.248606 -7.914656,6.315376 C 9.2302529,21.038421 6.6389598,18.799534 4.826776,15.788311 2.9787296,12.717478 2.4440063,9.1787766 3.1670499,5.8719794 5.8400888,3.6671489 8.9243153,2.6261556 12.567472,2.6404788 Z"
     id="path1132-6-7-5-3-3-5-0" /><g
     style="fill:none;stroke:#aaaaaa;stroke-width:1.99562;stroke-linecap:round;stroke-linejoin:round"
     id="g605"
     transform="matrix(0.59439633,0,0,0.50763219,5.2047322,4.831796)"><path
       d="M 4,19.5 A 2.5,2.5 0 0 1 6.5,17 H 20"
       id="path593"
       style="stroke-width:1.99562" /><path
       d="M 6.5,2 H 20 V 22 H 6.5 A 2.5,2.5 0 0 1 4,19.5 V 4.5 A 2.5,2.5 0 0 1 6.5,2 Z"
       id="path595"
       style="stroke-width:1.99562" /></g></svg>
