<?xml version="1.0" encoding="UTF-8" standalone="no"?>
<svg
   xmlns:dc="http://purl.org/dc/elements/1.1/"
   xmlns:cc="http://creativecommons.org/ns#"
   xmlns:rdf="http://www.w3.org/1999/02/22-rdf-syntax-ns#"
   xmlns:svg="http://www.w3.org/2000/svg"
   xmlns="http://www.w3.org/2000/svg"
   xmlns:sodipodi="http://sodipodi.sourceforge.net/DTD/sodipodi-0.dtd"
   xmlns:inkscape="http://www.inkscape.org/namespaces/inkscape"
   width="20"
   height="20"
   viewBox="0 0 24 24"
   fill="none"
   stroke="#aaaaaa"
   stroke-width="1.5"
   stroke-linecap="round"
   stroke-linejoin="round"
   class="feather feather-table"
   version="1.1"
   id="svg4"
   sodipodi:docname="table.svg"
   inkscape:version="1.0.1 (3bc2e813f5, 2020-09-07)"
   inkscape:export-filename="/home/marcin/PycharmProjects/Eleana/pixmaps/table.png"
   inkscape:export-xdpi="124"
   inkscape:export-ydpi="124">
  <metadata
     id="metadata10">
    <rdf:RDF>
      <cc:Work
         rdf:about="">
        <dc:format>image/svg+xml</dc:format>
        <dc:type
           rdf:resource="http://purl.org/dc/dcmitype/StillImage" />
      </cc:Work>
    </rdf:RDF>
  </metadata>
  <defs
     id="defs8" />
  <sodipodi:namedview
     pagecolor="#ffffff"
     bordercolor="#000000"
     borderopacity="0.25"
     objecttolerance="10"
     gridtolerance="10"
     guidetolerance="10"
     inkscape:pageopacity="0"
     inkscape:pageshadow="2"
     inkscape:window-width="1920"
     inkscape:window-height="1127"
     id="namedview6"
     showgrid="false"
     inkscape:zoom="36.75"
     inkscape:cx="10"
     inkscape:cy="10"
     inkscape:window-x="0"
     inkscape:window-y="0"
     inkscape:window-maximized="1"
     inkscape:current-layer="svg4" />
  <path
     d="M 9.3948001,2.6710076 H 5.7367137 A 1.8290432,1.8290432 0 0 0 3.9076705,4.5000508 V 8.1581372 M 9.3948001,2.6710076 h 9.1452159 a 1.8290432,1.8290432 0 0 1 1.829043,1.8290432 V 8.1581372 M 9.3948001,2.6710076 V 19.132396 m 0,0 h 9.1452159 a 1.8290432,1.8290432 0 0 0 1.829043,-1.829043 V 8.1581372 M 9.3948001,19.132396 H 5.7367137 A 1.8290432,1.8290432 0 0 1 3.9076705,17.303353 V 8.1581372 m 0,0 H 20.369059"
     id="path2"
     style="stroke-width:1.37178" />
  <polyline
     points="10 9 9 9 8 9"
     id="polyline10-6"
     style="stroke-width:1.87567"
     transform="matrix(0.78347623,0,0,0.73294198,5.011161,3.6940954)" />
  <polyline
     points="10 9 9 9 8 9"
     id="polyline10-6-3"
     style="stroke-width:1.87567"
     transform="matrix(0.78347623,0,0,0.73294198,5.011161,5.8932604)" />
  <polyline
     points="10 9 9 9 8 9"
     id="polyline10-6-3-6"
     style="stroke-width:1.87567"
     transform="matrix(0.78347623,0,0,0.73294198,5.011161,8.0924252)" />
  <polyline
     points="10 9 9 9 8 9"
     id="polyline10-6-3-6-7"
     style="stroke-width:1.87567"
     transform="matrix(0.78347623,0,0,0.73294198,5.011161,10.291588)" />
  <polyline
     points="10 9 9 9 8 9"
     id="polyline10-6-5"
     style="stroke-width:1.87567"
     transform="matrix(0.78347623,0,0,0.73294198,9.7488535,3.7108105)" />
  <polyline
     points="10 9 9 9 8 9"
     id="polyline10-6-3-3"
     style="stroke-width:1.87567"
     transform="matrix(0.78347623,0,0,0.73294198,9.7488535,5.9099756)" />
  <polyline
     points="10 9 9 9 8 9"
     id="polyline10-6-3-6-5"
     style="stroke-width:1.87567"
     transform="matrix(0.78347623,0,0,0.73294198,9.7488535,8.1091404)" />
  <polyline
     points="10 9 9 9 8 9"
     id="polyline10-6-3-6-7-6"
     style="stroke-width:1.87567"
     transform="matrix(0.78347623,0,0,0.73294198,9.7488535,10.308303)" />
</svg>
