<?xml version="1.0" encoding="UTF-8" standalone="no"?>
<svg
   xmlns:dc="http://purl.org/dc/elements/1.1/"
   xmlns:cc="http://creativecommons.org/ns#"
   xmlns:rdf="http://www.w3.org/1999/02/22-rdf-syntax-ns#"
   xmlns:svg="http://www.w3.org/2000/svg"
   xmlns="http://www.w3.org/2000/svg"
   xmlns:sodipodi="http://sodipodi.sourceforge.net/DTD/sodipodi-0.dtd"
   xmlns:inkscape="http://www.inkscape.org/namespaces/inkscape"
   width="20"
   height="20"
   viewBox="0 0 24 24"
   fill="none"
   stroke="#aaaaaa"
   stroke-width="1.5"
   stroke-linecap="round"
   stroke-linejoin="round"
   class="feather feather-file-text"
   version="1.1"
   id="svg12"
   sodipodi:docname="table2.svg"
   inkscape:version="1.0.1 (3bc2e813f5, 2020-09-07)"
   inkscape:export-filename="/home/marcin/PycharmProjects/Eleana/pixmaps/notes.png"
   inkscape:export-xdpi="124"
   inkscape:export-ydpi="124">
  <metadata
     id="metadata18">
    <rdf:RDF>
      <cc:Work
         rdf:about="">
        <dc:format>image/svg+xml</dc:format>
        <dc:type
           rdf:resource="http://purl.org/dc/dcmitype/StillImage" />
        <dc:title></dc:title>
      </cc:Work>
    </rdf:RDF>
  </metadata>
  <defs
     id="defs16" />
  <sodipodi:namedview
     pagecolor="#ffffff"
     bordercolor="#666666"
     borderopacity="1"
     objecttolerance="10"
     gridtolerance="10"
     guidetolerance="10"
     inkscape:pageopacity="0"
     inkscape:pageshadow="2"
     inkscape:window-width="1920"
     inkscape:window-height="1127"
     id="namedview14"
     showgrid="false"
     inkscape:zoom="36.65"
     inkscape:cx="10"
     inkscape:cy="10"
     inkscape:window-x="0"
     inkscape:window-y="0"
     inkscape:window-maximized="1"
     inkscape:current-layer="svg12"
     inkscape:document-rotation="0" />
  <path
     d="M 13.623425,2.0917156 H 7.2395415 c -0.8814303,0 -1.5959708,0.7176414 -1.5959708,1.602897 V 16.517789 c 0,0.885256 0.7145405,1.602897 1.5959708,1.602897 h 9.5758255 c 0.88143,0 1.59597,-0.717642 1.59597,-1.602897 L 18.319088,2.1091996 Z"
     id="path2"
     style="stroke-width:1.5"
     sodipodi:nodetypes="csssscscc" />
  <polyline
     points="14 2 14 8 20 8"
     id="polyline4"
     style="stroke-width:1.87567"
     transform="matrix(0.79798542,0,0,0.80144852,-22.118908,2.6858884)" />
  <polyline
     points="10 9 9 9 8 9"
     id="polyline10"
     style="stroke-width:1.87567"
     transform="matrix(0.33309711,0,0,0.80144852,5.5195989,-0.03860863)" />
  <polyline
     points="10 9 9 9 8 9"
     id="polyline10-3"
     style="stroke-width:1.87567"
     transform="matrix(0.33309711,0,0,0.80144852,5.5195989,2.2718211)" />
  <polyline
     points="10 9 9 9 8 9"
     id="polyline10-3-6"
     style="stroke-width:1.87567"
     transform="matrix(0.33309711,0,0,0.80144852,5.5195989,4.5822504)" />
  <polyline
     points="10 9 9 9 8 9"
     id="polyline10-3-6-7"
     style="stroke-width:1.87567"
     transform="matrix(0.33309711,0,0,0.80144852,5.5195989,6.8926792)" />
  <polyline
     points="10 9 9 9 8 9"
     id="polyline10-6"
     style="stroke-width:1.87567"
     transform="matrix(0.33309712,0,0,0.80144852,7.8873759,0.02666132)" />
  <polyline
     points="10 9 9 9 8 9"
     id="polyline10-3-2"
     style="stroke-width:1.87567"
     transform="matrix(0.33309712,0,0,0.80144852,7.8873759,2.3370909)" />
  <polyline
     points="10 9 9 9 8 9"
     id="polyline10-3-6-9"
     style="stroke-width:1.87567"
     transform="matrix(0.33309712,0,0,0.80144852,7.8873759,4.6475203)" />
  <polyline
     points="10 9 9 9 8 9"
     id="polyline10-3-6-7-1"
     style="stroke-width:1.87567"
     transform="matrix(0.33309712,0,0,0.80144852,7.8873759,6.9579494)" />
  <polyline
     points="10 9 9 9 8 9"
     id="polyline10-6-2"
     style="stroke-width:1.87567"
     transform="matrix(0.33309712,0,0,0.80144852,10.197372,0.02895038)" />
  <polyline
     points="10 9 9 9 8 9"
     id="polyline10-3-2-7"
     style="stroke-width:1.87567"
     transform="matrix(0.33309712,0,0,0.80144852,10.197372,2.33938)" />
  <polyline
     points="10 9 9 9 8 9"
     id="polyline10-3-6-9-0"
     style="stroke-width:1.87567"
     transform="matrix(0.33309712,0,0,0.80144852,10.197372,4.6498094)" />
  <polyline
     points="10 9 9 9 8 9"
     id="polyline10-3-6-7-1-9"
     style="stroke-width:1.87567"
     transform="matrix(0.33309712,0,0,0.80144852,10.197372,6.9602385)" />
  <polyline
     points="10 9 9 9 8 9"
     id="polyline10-6-2-3"
     style="stroke-width:1.87567"
     transform="matrix(0.33309712,0,0,0.80144852,12.418049,0.10899923)" />
  <polyline
     points="10 9 9 9 8 9"
     id="polyline10-3-2-7-6"
     style="stroke-width:1.87567"
     transform="matrix(0.33309712,0,0,0.80144852,12.418049,2.4194288)" />
  <polyline
     points="10 9 9 9 8 9"
     id="polyline10-3-6-9-0-0"
     style="stroke-width:1.87567"
     transform="matrix(0.33309712,0,0,0.80144852,12.418049,4.7298583)" />
  <polyline
     points="10 9 9 9 8 9"
     id="polyline10-3-6-7-1-9-6"
     style="stroke-width:1.87567"
     transform="matrix(0.33309712,0,0,0.80144852,12.418049,7.0402872)" />
  <polyline
     points="10 9 9 9 8 9"
     id="polyline10-2"
     style="stroke-width:1.87567"
     transform="matrix(1.0939692,0,0,0.80144852,-0.10955732,-2.3817982)" />
  <polyline
     points="10 9 9 9 8 9"
     id="polyline10-2-6"
     style="stroke-width:1.87567"
     transform="matrix(1.0939692,0,0,0.80144852,4.4431445,-2.3272782)" />
</svg>
